<?xml version="1.0" encoding="UTF-8"?>
<svg id="Layer_2" xmlns="http://www.w3.org/2000/svg" viewBox="0 0 278.31 56.49">
  <defs>
    <style>
      .cls-1 {
        fill: #566d31;
      }

      .cls-2 {
        fill: #bb9a2f;
      }
    </style>
  </defs>
  <g id="Logo_Variations">
    <g>
      <path class="cls-1" d="M34.24,17.88l-1.79.34c-.6-2.32-1.43-4.62-3.21-6.06v-3.23c1.81.27,3.32.66,4.09.79.22,2.09.45,4.4.91,8.16Z"/>
      <path class="cls-2" d="M36.27,54.14v2.35H11.84v-2.35c6.39-.41,8-1.05,8.37-4.9.05-.47.08-.99.09-1.57.01-.47.02-.97.02-1.5v-15.98c.71.43,1.45.85,2.2,1.25,2.44,1.34,4.07,2.35,5.1,3.43v11.3c0,.36,0,.69.01,1,.01.58.03,1.12.06,1.6.3,4.22,1.81,4.94,8.58,5.37Z"/>
      <path class="cls-1" d="M18.71,43.99v2.18c0,.44,0,.85-.01,1.23-1.73-.38-3.27-.92-4.62-1.44-.46-1.63-1.16-5.55-1.55-8.68l1.79-.45c.72,2.44,2.01,5.36,4.39,7.16Z"/>
      <path class="cls-1" d="M35.63,37.17c0,4.14-2.46,7.62-6.39,9.4v-3.11c.95-1.16,1.48-2.69,1.48-4.39,0-2-.48-3.47-1.48-4.73-.44-.55-.98-1.07-1.62-1.57-1.13-.88-2.58-1.73-4.35-2.71-1.06-.57-2.05-1.14-2.95-1.7-.58-.36-1.12-.73-1.61-1.09-3.2-2.32-4.92-4.82-4.92-8.65,0-3.25,1.71-6.39,4.92-8.25v4.23c-.25.76-.35,1.56-.35,2.36,0,.85.11,1.6.35,2.3.3.97.85,1.82,1.61,2.59,1.23,1.28,3.04,2.38,5.37,3.6.68.35,1.32.68,1.93,1.02.57.32,1.11.64,1.62.95,4.42,2.73,6.39,5.31,6.39,9.75Z"/>
      <path class="cls-2" d="M48.01,14.86l-2.51.25c-.75-2.69-1.76-5.46-2.68-6.97-1.35-2.26-2.18-2.84-6.81-2.84h-8.39v19.39c-.39-.21-.79-.42-1.21-.64-3.58-1.85-5.36-3.23-6.09-4.92V5.3h-7.64c-4.62,0-5.96.49-7.39,3.01-1,1.68-1.68,3.7-2.77,6.8H0C.51,9.99,1.01,4.71,1.26,0h1.94c1.25,2.02,2.17,1.93,4.53,1.93h33.24c2.34,0,3.02-.34,4.28-1.93h2.02c0,3.94.33,9.99.74,14.86Z"/>
      <path class="cls-1" d="M47.45,29.77c0-.76-.38-1.14-1.14-1.14h-5.34c-.72,0-1.14-.42-1.14-1.14v-4.27c0-.76.42-1.14,1.14-1.14h19.53c.76,0,1.14.38,1.14,1.14v4.27c0,.73-.38,1.14-1.14,1.14h-5.34c-.72,0-1.14.38-1.14,1.14v17.85c0,.73-.38,1.14-1.14,1.14h-4.27c-.72,0-1.14-.42-1.14-1.14v-17.85Z"/>
      <path class="cls-1" d="M69.27,22.06c.76,0,1.14.38,1.14,1.14v24.41c0,.73-.38,1.14-1.14,1.14h-4.2c-.72,0-1.14-.42-1.14-1.14v-24.41c0-.76.42-1.14,1.14-1.14h4.2Z"/>
      <path class="cls-1" d="M83.26,22.06c.69,0,1.07.38,1.22,1.03l2.71,11.1c.08.38.38.38.46,0l2.71-11.1c.15-.65.53-1.03,1.22-1.03h7.9c.76,0,1.14.38,1.14,1.14v24.41c0,.73-.38,1.14-1.14,1.14h-4.27c-.72,0-1.14-.42-1.14-1.14v-15.03c0-.27-.34-.31-.42-.04l-3.7,15.22c-.15.65-.57.99-1.26.99h-2.52c-.69,0-1.11-.34-1.26-.99l-3.7-15.22c-.08-.27-.42-.23-.42.04v15.03c0,.73-.38,1.14-1.14,1.14h-4.27c-.76,0-1.14-.42-1.14-1.14v-24.41c0-.76.38-1.14,1.14-1.14h7.9Z"/>
      <path class="cls-1" d="M113.58,22.06c7.17,0,9.92,2.9,9.92,9.16,0,1.3-.38,3.81-1.95,5.53,1.56.72,2.71,2.63,2.71,5,0,4.73-2.1,7.02-9.27,7.02h-9.42c-.72,0-1.14-.42-1.14-1.14v-24.38c0-.76.38-1.14,1.14-1.18h8.01ZM114.5,43.35c1.83,0,2.75-.19,2.75-1.98s-.84-2.06-2.67-2.06h-2.48c-.72,0-1.14.38-1.14,1.14v1.75c0,.76.42,1.14,1.14,1.14h2.4ZM114.19,33.81c1.83,0,2.75-.23,2.75-2.59s-.92-2.59-2.75-2.59h-2.06c-.72,0-1.14.38-1.14,1.14v2.9c0,.76.42,1.14,1.14,1.14h2.06Z"/>
      <path class="cls-1" d="M143.94,22.06c.76,0,1.14.38,1.14,1.14v4.27c0,.73-.38,1.14-1.14,1.14h-9.23c-.72,0-1.14.38-1.14,1.14v1.22c0,.72.42,1.14,1.14,1.14h5.91c.76,0,1.14.38,1.14,1.14v4.27c0,.73-.38,1.14-1.14,1.14h-5.91c-.72,0-1.14.38-1.14,1.14v1.22c0,.72.42,1.14,1.14,1.14h9.23c.76,0,1.14.38,1.14,1.14v4.27c0,.76-.38,1.14-1.14,1.14h-16.02c-.72,0-1.14-.42-1.14-1.14v-24.41c0-.76.42-1.14,1.14-1.14h16.02Z"/>
      <path class="cls-1" d="M168.13,46.71c.53.99-.08,2.06-1.26,2.06h-4.35c-.38,0-.72-.19-.88-.53l-3.97-7.67c-.08-.11-.19-.19-.31-.19h-1.53c-.69,0-1.18.5-1.18,1.18v6.03c0,.69-.5,1.18-1.18,1.18h-4.27c-.69,0-1.18-.5-1.18-1.18v-24.34c0-.69.5-1.18,1.18-1.18h8.35c6.79,0,9.54,2.9,9.54,9.16,0,3.55-.88,6.03-2.9,7.48-.15.11-.19.31-.12.5l4.04,7.51ZM155.84,28.63c-.69,0-1.18.5-1.18,1.18v2.82c0,.69.5,1.18,1.18,1.18h1.95c1.83,0,2.75-.23,2.75-2.59s-.92-2.59-2.75-2.59h-1.95Z"/>
      <path class="cls-2" d="M183.38,31.53c-.76.15-1.14-.19-1.26-.95-.27-1.56-1.53-2.56-3.32-2.56-1.49,0-2.4.88-2.25,1.75.53,2.98,12.59,2.9,12.59,11.67,0,1.14-1.3,7.9-10.34,7.9-8.01,0-9.73-5.26-9.92-8.24-.04-.69.31-1.11.99-1.26l4.31-.95c.76-.15,1.18.19,1.26.99.15,1.83,1.56,2.9,3.36,2.9s3.24-1.11,3.01-2.14c-.72-3.24-12.21-2.52-12.21-11.29-.04-1.14.65-7.9,9.19-7.9,7.86,0,9.69,5.11,9.92,7.86.04.69-.31,1.11-.99,1.26l-4.35.95Z"/>
      <path class="cls-2" d="M197.61,29.77c0-.76-.38-1.14-1.14-1.14h-5.34c-.72,0-1.14-.42-1.14-1.14v-4.27c0-.76.42-1.14,1.14-1.14h19.53c.76,0,1.14.38,1.14,1.14v4.27c0,.73-.38,1.14-1.14,1.14h-5.34c-.72,0-1.14.38-1.14,1.14v17.85c0,.73-.38,1.14-1.14,1.14h-4.27c-.72,0-1.14-.42-1.14-1.14v-17.85Z"/>
      <path class="cls-2" d="M232.47,40.18c0,2.52-.53,9.27-9.58,9.27s-9.58-6.75-9.58-9.27v-9.54c0-2.52.53-9.27,9.58-9.27s9.58,6.75,9.58,9.27v9.54ZM225.91,32.67c0-2.94-.19-4.73-3.01-4.73s-3.01,1.79-3.01,4.73v5.49c0,2.94.19,4.73,3.01,4.73s3.01-1.79,3.01-4.73v-5.49Z"/>
      <path class="cls-2" d="M242.65,22.06c.65,0,1.07.27,1.33.88l5.19,12.7c.15.34.46.27.46-.11v-12.32c0-.76.42-1.14,1.14-1.14h4.27c.76,0,1.14.38,1.14,1.14v24.41c0,.73-.38,1.14-1.14,1.14h-5.61c-.65,0-1.07-.27-1.33-.88l-5.19-12.7c-.15-.34-.46-.27-.46.11v12.32c0,.73-.38,1.14-1.14,1.14h-4.27c-.72,0-1.14-.42-1.14-1.14v-24.41c0-.76.42-1.14,1.14-1.14h5.61Z"/>
      <path class="cls-2" d="M277.17,22.06c.76,0,1.14.38,1.14,1.14v4.27c0,.73-.38,1.14-1.14,1.14h-9.23c-.72,0-1.14.38-1.14,1.14v1.22c0,.72.42,1.14,1.14,1.14h5.91c.76,0,1.14.38,1.14,1.14v4.27c0,.73-.38,1.14-1.14,1.14h-5.91c-.72,0-1.14.38-1.14,1.14v1.22c0,.72.42,1.14,1.14,1.14h9.23c.76,0,1.14.38,1.14,1.14v4.27c0,.76-.38,1.14-1.14,1.14h-16.02c-.72,0-1.14-.42-1.14-1.14v-24.41c0-.76.42-1.14,1.14-1.14h16.02Z"/>
    </g>
  </g>
</svg>